<svg xmlns="http://www.w3.org/2000/svg" version="1.1" xmlns:xlink="http://www.w3.org/1999/xlink" xmlns:svgjs="http://svgjs.dev/svgjs" width="1500" height="500" viewBox="0 0 1500 500"><g transform="matrix(1,0,0,1,-0.9090909090907644,-1.396597549868062)"><svg viewBox="0 0 396 132" data-background-color="#ffffff" preserveAspectRatio="xMidYMid meet" height="500" width="1500" xmlns="http://www.w3.org/2000/svg" xmlns:xlink="http://www.w3.org/1999/xlink"><g id="tight-bounds" transform="matrix(1,0,0,1,0.23999999999995225,0.36870175316516907)"><svg viewBox="0 0 395.52 131.26259649366966" height="131.26259649366966" width="395.52"><g><svg viewBox="0 0 605.6525021111705 200.99999999999997" height="131.26259649366966" width="395.52"><g><rect width="8.494809010444873" height="200.99999999999997" x="221.92190741407185" y="0" fill="#2257bf" opacity="1" stroke-width="0" stroke="transparent" fill-opacity="1" class="rect-yte-0" data-fill-palette-color="primary" rx="1%" id="yte-0" data-palette-color="#2257bf"></rect></g><g transform="matrix(1,0,0,1,252.65443634714728,0.4999999999999858)"><svg viewBox="0 0 352.99806576402324 200" height="200" width="352.99806576402324"><g id="textblocktransform"><svg viewBox="0 0 352.99806576402324 200" height="200" width="352.99806576402324" id="textblock"><g><svg viewBox="0 0 352.99806576402324 200" height="200" width="352.99806576402324"><g transform="matrix(1,0,0,1,0,0)"><svg width="352.99806576402324" viewBox="1.6500000000000012 -36.9 182.50000000000003 100.4" height="200" data-palette-color="#2257bf"><svg></svg><svg></svg><g class="wordmark-text-0" data-fill-palette-color="primary" id="text-0"><path d="M17.3 0.05v0c-1 0-1.467-0.55-1.4-1.65v0c0-0.367-0.05-0.55-0.15-0.55v0c-0.267 0.1-0.8 0.383-1.6 0.85v0c-3.967 2.433-7.45 2.583-10.45 0.45v0c-1.367-0.967-2.05-2.3-2.05-4v0c0-2.567 1.193-4.433 3.58-5.6 2.38-1.167 5.337-1.75 8.87-1.75v0c0.633 0 1.1 0.017 1.4 0.05v0c0-0.567 0.017-0.967 0.05-1.2v0c0-1.9-0.523-3.327-1.57-4.28-1.053-0.947-2.513-1.42-4.38-1.42v0c-0.9 0-1.867 0.133-2.9 0.4-1.033 0.267-1.7 0.4-2 0.4-0.3 0-0.54-0.183-0.72-0.55-0.187-0.367-0.28-0.85-0.28-1.45 0-0.6 0.743-1.077 2.23-1.43 1.48-0.347 2.903-0.52 4.27-0.52v0c3.233 0 5.69 0.85 7.37 2.55 1.687 1.7 2.53 4.183 2.53 7.45v0 10.3c0 0.9-0.167 1.45-0.5 1.65-0.333 0.2-1.1 0.3-2.3 0.3zM15.45-5.2v0c0.067-0.933 0.1-1.933 0.1-3 0-1.067-0.017-1.667-0.05-1.8v0c-4.6 0.433-7.4 1.267-8.4 2.5v0c-0.533 0.633-0.8 1.367-0.8 2.2v0c0 1.767 1.317 2.65 3.95 2.65v0c1.333 0 2.527-0.31 3.58-0.93 1.047-0.613 1.587-1.153 1.62-1.62zM27.25-5.3v0l0.35-11.1c0.033-0.267 0.05-0.733 0.05-1.4 0-0.667 0.027-1.167 0.08-1.5 0.047-0.333 0.12-0.733 0.22-1.2v0c0.2-0.833 0.683-1.25 1.45-1.25v0c1.667 0 2.5 0.367 2.5 1.1v0c0 0.567 0.017 0.967 0.05 1.2v0c0.2 0 1.167-0.45 2.9-1.35 1.733-0.9 3.217-1.35 4.45-1.35v0c0.5 0 0.843 0.123 1.03 0.37 0.18 0.253 0.27 0.83 0.27 1.73 0 0.9-0.117 1.583-0.35 2.05v0c-0.2 0.033-0.557 0.083-1.07 0.15-0.52 0.067-0.903 0.117-1.15 0.15-0.253 0.033-0.613 0.09-1.08 0.17-0.467 0.087-0.833 0.157-1.1 0.21-0.267 0.047-0.59 0.11-0.97 0.19-0.387 0.087-0.703 0.18-0.95 0.28-0.253 0.1-0.513 0.2-0.78 0.3v0c-0.533 0.2-0.9 0.467-1.1 0.8v0 3.25l0.1 8.5v0.75c0 0.133 0 0.407 0 0.82 0 0.42-0.007 0.763-0.02 1.03-0.02 0.267-0.097 0.533-0.23 0.8v0c-0.267 0.433-0.957 0.65-2.07 0.65-1.12 0-1.78-0.067-1.98-0.2v0c-0.4-0.267-0.6-1.983-0.6-5.15zM65.65-34.05v1.3l0.05 19.95v10.15c0 0.3-0.007 0.5-0.02 0.6-0.02 0.1-0.037 0.267-0.05 0.5-0.02 0.233-0.047 0.4-0.08 0.5v0c-0.133 0.4-0.24 0.633-0.32 0.7-0.087 0.067-0.18 0.133-0.28 0.2v0c-0.233 0.133-0.783 0.2-1.65 0.2-0.867 0-1.45-0.05-1.75-0.15v0c-0.067-0.167-0.117-0.467-0.15-0.9-0.033-0.433-0.067-0.717-0.1-0.85v0c-0.7 0.5-1.823 1.033-3.37 1.6-1.553 0.567-2.947 0.85-4.18 0.85v0c-3.1 0-5.607-1.05-7.52-3.15-1.92-2.1-2.88-4.7-2.88-7.8v0c0-4.3 1.867-7.617 5.6-9.95v0c1.833-1.267 4.167-1.9 7-1.9v0c0.767 0 2.467 0.35 5.1 1.05v0l0.05-2.2v-2.65c0-3.733 0.027-5.917 0.08-6.55 0.047-0.633 0.07-1.25 0.07-1.85 0-0.6 0.017-0.993 0.05-1.18 0.033-0.18 0.117-0.403 0.25-0.67v0c0.233-0.4 0.767-0.6 1.6-0.6 0.833 0 1.393 0.067 1.68 0.2 0.28 0.133 0.487 0.383 0.62 0.75v0c0.133 0.5 0.2 1.117 0.2 1.85zM48.3-11.45v0c0 2.7 0.7 4.807 2.1 6.32 1.4 1.52 3.3 2.28 5.7 2.28v0c1.2 0 2.2-0.117 3-0.35v0c1.367-0.433 2.05-1.033 2.05-1.8v0-9.25c0-2.2-0.1-3.417-0.3-3.65v0c-0.2-0.333-0.807-0.593-1.82-0.78-1.02-0.18-2.03-0.27-3.03-0.27v0c-2.267 0-4.1 0.7-5.5 2.1-1.4 1.4-2.133 3.2-2.2 5.4zM73.4-2.2v0l0.25-17.45v-15.6c0-0.567 0.167-0.983 0.5-1.25 0.333-0.267 1.133-0.4 2.4-0.4 1.267 0 1.9 0.333 1.9 1v0 1.4c-0.067 1.667-0.1 3.317-0.1 4.95 0 1.633 0.01 3.523 0.03 5.67 0.013 2.153 0.02 3.397 0.02 3.73v0c1.5-0.733 2.943-1.26 4.33-1.58 1.38-0.313 2.42-0.47 3.12-0.47v0c3.233 0 5.433 0.833 6.6 2.5 1.167 1.667 1.75 4.5 1.75 8.5 0 4-0.023 6.323-0.07 6.97-0.053 0.653-0.08 1.23-0.08 1.73v0 1c0 0.667-0.15 1.067-0.45 1.2v0c-0.733 0.267-1.44 0.4-2.12 0.4-0.687 0-1.163-0.033-1.43-0.1-0.267-0.067-0.45-0.233-0.55-0.5-0.1-0.267-0.157-0.467-0.17-0.6-0.02-0.133-0.02-0.467 0-1 0.013-0.533 0.02-0.9 0.02-1.1v0l0.05-9.45c0-2.233-0.34-3.81-1.02-4.73-0.687-0.913-2.163-1.37-4.43-1.37v0c-3.6 0-5.4 0.583-5.4 1.75v0l-0.05 4.3c0 4.733-0.023 7.65-0.07 8.75-0.053 1.1-0.07 1.807-0.05 2.12 0.013 0.32 0.003 0.603-0.03 0.85-0.033 0.253-0.133 0.447-0.3 0.58v0c-0.3 0.333-0.917 0.5-1.85 0.5-0.933 0-1.55-0.033-1.85-0.1v0c-0.633-0.167-0.95-0.9-0.95-2.2zM103.1-28.75c-0.333-0.1-0.723-0.443-1.17-1.03-0.453-0.58-0.67-1.13-0.65-1.65 0.013-0.513 0.347-1.043 1-1.59 0.647-0.553 1.487-0.83 2.52-0.83v0c1.533 0 2.3 0.733 2.3 2.2v0c0 1.033-0.323 1.8-0.97 2.3-0.653 0.5-1.237 0.75-1.75 0.75-0.52 0-0.947-0.05-1.28-0.15zM106.2-18.05v7.2l0.15 9.9c0 0.4-0.05 0.65-0.15 0.75v0c-0.333 0.167-1.033 0.25-2.1 0.25-1.067 0-1.723-0.077-1.97-0.23-0.253-0.147-0.38-0.603-0.38-1.37v0l-0.2-9.15c0-3.2 0.017-5.233 0.05-6.1v0l0.15-2.95c0-0.933 0.15-1.483 0.45-1.65 0.3-0.167 0.877-0.25 1.73-0.25 0.847 0 1.57 0.05 2.17 0.15v0c0.067 1.467 0.1 2.617 0.1 3.45z" fill="#2257bf" fill-rule="nonzero" stroke="none" stroke-width="1" stroke-linecap="butt" stroke-linejoin="miter" stroke-miterlimit="10" stroke-dasharray="" stroke-dashoffset="0" font-family="none" font-weight="none" font-size="none" text-anchor="none" style="mix-blend-mode: normal" data-fill-palette-color="primary" opacity="1"></path><path transform="translate(0,51.7)" d="M17.3 0.05v0c-1 0-1.467-0.55-1.4-1.65v0c0-0.367-0.05-0.55-0.15-0.55v0c-0.267 0.1-0.8 0.383-1.6 0.85v0c-3.967 2.433-7.45 2.583-10.45 0.45v0c-1.367-0.967-2.05-2.3-2.05-4v0c0-2.567 1.193-4.433 3.58-5.6 2.38-1.167 5.337-1.75 8.87-1.75v0c0.633 0 1.1 0.017 1.4 0.05v0c0-0.567 0.017-0.967 0.05-1.2v0c0-1.9-0.523-3.327-1.57-4.28-1.053-0.947-2.513-1.42-4.38-1.42v0c-0.9 0-1.867 0.133-2.9 0.4-1.033 0.267-1.7 0.4-2 0.4-0.3 0-0.54-0.183-0.72-0.55-0.187-0.367-0.28-0.85-0.28-1.45 0-0.6 0.743-1.077 2.23-1.43 1.48-0.347 2.903-0.52 4.27-0.52v0c3.233 0 5.69 0.85 7.37 2.55 1.687 1.7 2.53 4.183 2.53 7.45v0 10.3c0 0.9-0.167 1.45-0.5 1.65-0.333 0.2-1.1 0.3-2.3 0.3zM15.45-5.2v0c0.067-0.933 0.1-1.933 0.1-3 0-1.067-0.017-1.667-0.05-1.8v0c-4.6 0.433-7.4 1.267-8.4 2.5v0c-0.533 0.633-0.8 1.367-0.8 2.2v0c0 1.767 1.317 2.65 3.95 2.65v0c1.333 0 2.527-0.31 3.58-0.93 1.047-0.613 1.587-1.153 1.62-1.62zM29.15-21.65v0l2.35-0.05c0 0.167 0.1 0.583 0.3 1.25v0c0.2-0.067 0.767-0.267 1.7-0.6v0c2.2-0.767 4.027-1.15 5.48-1.15 1.447 0 2.72 0.223 3.82 0.67 1.1 0.453 1.95 1.02 2.55 1.7 0.6 0.687 1.083 1.597 1.45 2.73v0c0.533 1.833 0.8 4.267 0.8 7.3v0c0 0-0.083 2.85-0.25 8.55v0c0 0.667-0.057 1.05-0.17 1.15-0.12 0.1-0.587 0.15-1.4 0.15-0.82 0-1.763-0.067-2.83-0.2v0c-0.1-0.8-0.15-2.2-0.15-4.2v0l0.05-6.4c0-2.667-0.45-4.677-1.35-6.03-0.9-1.347-2.44-2.02-4.62-2.02-2.187 0-3.847 0.317-4.98 0.95v0l0.1 6.7c0.033 3 0.05 5.333 0.05 7v0l0.1 2.95c0 0.533-0.133 0.873-0.4 1.02-0.267 0.153-0.833 0.23-1.7 0.23v0l-2.6-0.1-0.2-10.45 0.2-7.6v-1.8c0-1.167 0.567-1.75 1.7-1.75zM68.4 0.05v0c-1 0-1.467-0.55-1.4-1.65v0c0-0.367-0.05-0.55-0.15-0.55v0c-0.267 0.1-0.8 0.383-1.6 0.85v0c-3.967 2.433-7.45 2.583-10.45 0.45v0c-1.367-0.967-2.05-2.3-2.05-4v0c0-2.567 1.193-4.433 3.58-5.6 2.38-1.167 5.337-1.75 8.87-1.75v0c0.633 0 1.1 0.017 1.4 0.05v0c0-0.567 0.017-0.967 0.05-1.2v0c0-1.9-0.523-3.327-1.57-4.28-1.053-0.947-2.513-1.42-4.38-1.42v0c-0.9 0-1.867 0.133-2.9 0.4-1.033 0.267-1.7 0.4-2 0.4-0.3 0-0.54-0.183-0.72-0.55-0.187-0.367-0.28-0.85-0.28-1.45 0-0.6 0.743-1.077 2.23-1.43 1.48-0.347 2.903-0.52 4.27-0.52v0c3.233 0 5.693 0.85 7.38 2.55 1.68 1.7 2.52 4.183 2.52 7.45v0 10.3c0 0.9-0.167 1.45-0.5 1.65-0.333 0.2-1.1 0.3-2.3 0.3zM66.55-5.2v0c0.067-0.933 0.1-1.933 0.1-3 0-1.067-0.017-1.667-0.05-1.8v0c-4.6 0.433-7.4 1.267-8.4 2.5v0c-0.533 0.633-0.8 1.367-0.8 2.2v0c0 1.767 1.317 2.65 3.95 2.65v0c1.333 0 2.527-0.31 3.58-0.93 1.047-0.613 1.587-1.153 1.62-1.62zM78.45-11.7v-5.25l-0.1-10.2c0-0.667 0.01-1.31 0.03-1.93 0.013-0.613 0.02-1.153 0.02-1.62v0-2.35c0-1.5 0.11-2.517 0.33-3.05 0.213-0.533 0.863-0.8 1.95-0.8 1.08 0 1.753 0.073 2.02 0.22 0.267 0.153 0.4 0.497 0.4 1.03v0l0.05 18.45 0.05 11c0 1 0.3 1.8 0.9 2.4 0.6 0.6 1.283 0.9 2.05 0.9 0.767 0 1.543-0.093 2.33-0.28 0.78-0.18 1.27-0.27 1.47-0.27v0c0.433 0 0.65 0.267 0.65 0.8v0c0 1.133-0.783 1.967-2.35 2.5v0c-1.1 0.333-2.273 0.5-3.52 0.5-1.253 0-2.263-0.217-3.03-0.65-0.767-0.433-1.357-0.967-1.77-1.6-0.42-0.633-0.747-1.533-0.98-2.7v0c-0.333-1.633-0.5-4-0.5-7.1zM104.35-8.4v0c0.533-0.533 0.983-1.167 1.35-1.9v0l0.7-1.4c0.133-0.2 0.767-1.4 1.9-3.6v0c2.367-4.6 3.817-6.9 4.35-6.9v0c0.333 0 0.793 0.15 1.38 0.45 0.58 0.3 0.903 0.567 0.97 0.8v0c0 0.167-1.707 3.507-5.12 10.02-3.42 6.52-5.263 10.047-5.53 10.58v0c-3.9 8.1-6.183 12.15-6.85 12.15v0c-0.533 0-1.117-0.14-1.75-0.42-0.633-0.287-0.983-0.547-1.05-0.78v0c0-0.2 0.25-0.85 0.75-1.95v0c0.367-0.667 0.883-1.583 1.55-2.75v0c1.567-2.733 2.51-4.457 2.83-5.17 0.313-0.72 0.647-1.373 1-1.96 0.347-0.58 0.653-1.12 0.92-1.62 0.267-0.5 0.4-0.833 0.4-1 0-0.167-0.407-0.783-1.22-1.85-0.82-1.067-1.63-2.177-2.43-3.33-0.8-1.147-1.683-2.437-2.65-3.87-0.967-1.433-1.583-2.35-1.85-2.75v0l-1.15-1.75c-1.1-1.633-1.65-2.643-1.65-3.03 0-0.38 0.383-0.77 1.15-1.17 0.767-0.4 1.333-0.6 1.7-0.6 0.367 0 0.867 0.323 1.5 0.97 0.633 0.653 1.367 1.57 2.2 2.75 0.833 1.187 1.6 2.313 2.3 3.38 0.7 1.067 1.5 2.317 2.4 3.75 0.9 1.433 1.533 2.417 1.9 2.95zM125.35-14.45v0l-0.1 7.2c0 1.367 0.233 2.407 0.7 3.12 0.467 0.72 1.25 1.08 2.35 1.08 1.1 0 2.033-0.1 2.8-0.3v0c1.433-0.4 2.15-0.2 2.15 0.6v0c0 2.233-2.067 3.35-6.2 3.35v0c-2.333 0-4.15-1.05-5.45-3.15v0c-0.633-1.333-0.95-2.917-0.95-4.75v0l0.1-5.8 0.1-4.2c0-0.467-0.067-0.76-0.2-0.88-0.133-0.113-0.383-0.17-0.75-0.17v0l-1.95 0.15c-0.833 0-1.25-0.267-1.25-0.8v0c0-0.933 0.11-1.593 0.33-1.98 0.213-0.38 0.62-0.57 1.22-0.57v0l1.95 0.15c0.467 0 0.7-0.567 0.7-1.7v0c0-0.133 0-0.217 0-0.25v0-2.85c0-0.867 0.017-1.367 0.05-1.5v0c0.4-0.2 1.717-0.3 3.95-0.3v0c0.6 0 0.9 0.317 0.9 0.95v0l-0.15 5.5c0.4 0.033 1.05 0.05 1.95 0.05v0l4-0.3c0.533 0 0.8 0.317 0.8 0.95v0c0 1.833-0.9 2.75-2.7 2.75v0l-3.25-0.2c-0.533 0-0.867 0.033-1 0.1v0c-0.067 0.6-0.1 1.85-0.1 3.75zM139.75-28.75c-0.333-0.1-0.723-0.443-1.17-1.03-0.453-0.58-0.67-1.13-0.65-1.65 0.013-0.513 0.347-1.043 1-1.59 0.647-0.553 1.487-0.83 2.52-0.83v0c1.533 0 2.3 0.733 2.3 2.2v0c0 1.033-0.323 1.8-0.97 2.3-0.653 0.5-1.237 0.75-1.75 0.75-0.52 0-0.947-0.05-1.28-0.15zM142.85-18.05v7.2l0.15 9.9c0 0.4-0.05 0.65-0.15 0.75v0c-0.333 0.167-1.033 0.25-2.1 0.25-1.067 0-1.723-0.077-1.97-0.23-0.253-0.147-0.38-0.603-0.38-1.37v0l-0.2-9.15c0-3.2 0.017-5.233 0.05-6.1v0l0.15-2.95c0-0.933 0.15-1.483 0.45-1.65 0.3-0.167 0.877-0.25 1.73-0.25 0.847 0 1.57 0.05 2.17 0.15v0c0.067 1.467 0.1 2.617 0.1 3.45zM167.6-3.45v0c0.567 0 0.85 0.4 0.85 1.2v0c0 1.9-2.467 2.85-7.4 2.85v0c-2.1 0-3.967-0.333-5.6-1-1.633-0.667-2.9-1.533-3.8-2.6v0c-1.867-2.2-2.8-4.65-2.8-7.35v0c0-3.467 1.3-6.277 3.9-8.43 2.6-2.147 5.833-3.22 9.7-3.22 3.867 0 5.8 0.55 5.8 1.65v0c0 0.767-0.133 1.2-0.4 1.3-0.267 0.1-0.467 0.15-0.6 0.15v0h-0.9c-3.967 0-7.05 0.573-9.25 1.72-2.2 1.153-3.3 3.13-3.3 5.93 0 2.8 0.843 4.923 2.53 6.37 1.68 1.453 4.037 2.18 7.07 2.18v0c0.7 0 1.5-0.127 2.4-0.38 0.9-0.247 1.5-0.37 1.8-0.37zM172.1-2.45v0l1.8 0.2c1.333 0 2.533-0.293 3.6-0.88 1.067-0.58 1.6-1.42 1.6-2.52v0c0-0.4-0.073-0.827-0.22-1.28-0.153-0.447-0.687-1.097-1.6-1.95-0.92-0.847-1.763-1.82-2.53-2.92-0.767-1.1-1.15-2.333-1.15-3.7v0c0-1.333 0.6-2.733 1.8-4.2v0c0.567-0.7 1.417-1.293 2.55-1.78 1.133-0.48 2.243-0.72 3.33-0.72 1.08 0 1.747 0.123 2 0.37 0.247 0.253 0.337 0.613 0.27 1.08v0l-0.4 1.45c-0.5-0.133-1.073-0.2-1.72-0.2-0.653 0-1.33 0.257-2.03 0.77-0.7 0.52-1.05 1.18-1.05 1.98 0 0.8 0.3 1.607 0.9 2.42 0.6 0.82 1.267 1.53 2 2.13 0.733 0.6 1.4 1.417 2 2.45 0.6 1.033 0.9 2.15 0.9 3.35v0c0 2.3-1.017 4.04-3.05 5.22-2.033 1.187-4.45 1.78-7.25 1.78v0c-0.733 0-1.267-0.14-1.6-0.42-0.333-0.287-0.5-0.74-0.5-1.36 0-0.613 0.117-1.037 0.35-1.27z" fill="#2257bf" fill-rule="nonzero" stroke="none" stroke-width="1" stroke-linecap="butt" stroke-linejoin="miter" stroke-miterlimit="10" stroke-dasharray="" stroke-dashoffset="0" font-family="none" font-weight="none" font-size="none" text-anchor="none" style="mix-blend-mode: normal" data-fill-palette-color="primary" opacity="1"></path></g></svg></g></svg></g></svg></g></svg></g><g transform="matrix(1,0,0,1,0,0.5)"><svg viewBox="0 0 199.6841874914413 199.99999999999997" height="199.99999999999997" width="199.6841874914413"><g><svg xmlns="http://www.w3.org/2000/svg" xmlns:xlink="http://www.w3.org/1999/xlink" version="1.1" x="0" y="0" viewBox="0.17579040187637138 0 99.64740166291651 99.805" enable-background="new 0 0 100 100" xml:space="preserve" height="199.99999999999997" width="199.6841874914413" class="icon-icon-0" data-fill-palette-color="accent" id="icon-0"><path fill="#2ecc40" d="M99.689 97.089L86.3 62.412A2 2 0 0 0 85.19 61.282L65.264 53.169A2 2 0 0 0 63.846 53.134L63.117 53.391C69.034 44.175 75.78 31.726 75.78 22.843 75.779 10.247 65.514 0 52.891 0S30.001 10.247 30.001 22.842C30.001 33.726 40.206 49.955 46.581 59.034L27.209 52.489A2.01 2.01 0 0 0 25.131 52.991L0.74 78.125A1.992 1.992 0 0 0 1.175 81.241L32.868 99.517H32.871L32.899 99.535C32.92 99.547 32.943 99.552 32.964 99.56 33.052 99.607 33.139 99.654 33.235 99.689 33.26 99.698 33.287 99.701 33.312 99.709 33.347 99.721 33.382 99.729 33.418 99.736 33.539 99.767 33.66 99.786 33.781 99.794 33.805 99.795 33.83 99.8 33.854 99.8 33.869 99.8 33.883 99.805 33.898 99.805 33.938 99.805 33.976 99.788 34.016 99.785 34.152 99.777 34.286 99.759 34.419 99.723 34.484 99.705 34.545 99.682 34.608 99.659 34.666 99.637 34.727 99.626 34.784 99.597L62.551 85.896A2 2 0 0 0 63.216 86.019C63.372 86.019 63.524 85.997 63.669 85.961L97.061 99.653C97.305 99.755 97.565 99.802 97.821 99.802A2 2 0 0 0 99.218 99.233C99.793 98.676 99.977 97.833 99.689 97.089M48.098 43.14C48.098 40.421 50.348 38.124 53.017 38.124 55.743 38.124 58.043 40.421 58.043 43.14 58.043 45.804 55.741 48.054 53.017 48.054 50.348 48.054 48.098 45.804 48.098 43.14M43.381 16.387C42.963 16.02 43.015 15.395 43.381 15.029 43.381 15.029 47.258 10.429 54.014 10.429 59.561 10.429 64.696 14.297 64.696 19.574 64.696 26.469 56.842 26.678 56.842 32.322A0.995 0.995 0 0 1 55.845 33.316H50.243A0.99 0.99 0 0 1 49.25 32.322V30.13C49.25 25.737 56.478 23.806 56.478 20.463 56.478 18.841 54.8 17.379 52.549 17.379 48.883 17.379 47.889 20.673 46.579 19.523zM32.453 81.23A21 21 0 0 0 36.508 82.281 0.99 0.99 0 0 0 37.363 81.989L32.815 94.876 5.396 79.064 17.757 66.326C18.046 66.972 18.451 67.82 18.997 68.806A0.999 0.999 0 0 0 20.747 67.842 29 29 0 0 1 19.267 64.772L27.123 56.675 44.253 62.463 37.637 81.211A0.98 0.98 0 0 0 36.812 80.309 18.8 18.8 0 0 1 33.148 79.36 1 1 0 0 0 31.863 79.95 0.995 0.995 0 0 0 32.453 81.23M61.803 68.641A0.983 0.983 0 0 0 61.608 69.938 1 1 0 0 0 61.749 70.1L61.293 82.065 37.423 93.844 48.384 62.786 49.1 62.535C50.466 64.387 51.388 65.56 51.558 65.777 51.902 66.212 52.427 66.465 52.982 66.465H52.986A1.82 1.82 0 0 0 54.411 65.772C54.673 65.438 56.71 62.821 59.424 58.916L62.215 57.937zM65.286 82.307L65.795 68.966C65.957 68.93 66.119 68.891 66.283 68.86A0.997 0.997 0 1 0 65.912 66.899C65.898 66.901 65.887 66.905 65.873 66.909L66.218 57.869 82.878 64.653 94.287 94.2z" data-fill-palette-color="accent"></path><path fill="#2ecc40" d="M24.644 73.37C24.276 72.96 23.644 72.924 23.232 73.29A0.997 0.997 0 0 0 23.152 74.7 27 27 0 0 0 26.144 77.574C26.331 77.724 26.554 77.8 26.777 77.8A0.998 0.998 0 0 0 27.411 76.032 25 25 0 0 1 24.644 73.37" data-fill-palette-color="accent"></path><path fill="#2ecc40" d="M46.831 78.032A38 38 0 0 1 43.193 79.417 0.998 0.998 0 1 0 43.806 81.316 39 39 0 0 0 47.637 79.857 0.997 0.997 0 1 0 46.831 78.032" data-fill-palette-color="accent"></path><path fill="#2ecc40" d="M77.242 68.311A21.6 21.6 0 0 0 73.26 67.018 1.003 1.003 0 0 0 72.071 67.782C71.955 68.319 72.298 68.852 72.838 68.97 74.036 69.23 75.25 69.624 76.446 70.144A0.999 0.999 0 1 0 77.242 68.311" data-fill-palette-color="accent"></path><path fill="#2ecc40" d="M56.164 72.627A75 75 0 0 1 52.876 74.807 0.997 0.997 0 0 0 53.408 76.653C53.589 76.653 53.77 76.604 53.936 76.502A79 79 0 0 0 57.311 74.265 1 1 0 0 0 56.164 72.627" data-fill-palette-color="accent"></path><path fill="#2ecc40" d="M82.02 72.227A0.994 0.994 0 0 0 82.192 73.627 37 37 0 0 1 85.12 76.186 1.004 1.004 0 0 0 86.534 76.161 0.996 0.996 0 0 0 86.511 74.75 39 39 0 0 0 83.425 72.057 1 1 0 0 0 82.02 72.227" data-fill-palette-color="accent"></path></svg></g></svg></g></svg></g><defs></defs></svg><rect width="395.52" height="131.26259649366966" fill="none" stroke="none" visibility="hidden"></rect></g></svg></g></svg>